<svg id="SvgjsSvg1001" width="288" height="288" xmlns="http://www.w3.org/2000/svg" version="1.1" xmlns:xlink="http://www.w3.org/1999/xlink" xmlns:svgjs="http://svgjs.com/svgjs"><defs id="SvgjsDefs1002"></defs><g id="SvgjsG1008" transform="matrix(1,0,0,1,0,0)"><svg xmlns="http://www.w3.org/2000/svg" enable-background="new 0 0 37 37" viewBox="0 0 37 37" width="288" height="288"><path d="m14.934,8.5l.333,2h19.442l-3.709,10c-0.583,1.657-1.343,3-3,3h-15c-1.657,0-2.353-1.376-3-3l-3.921-17h-6.079v2h4.471l3.529,15c0.749,2.6 2.239,5 5,5h15c2.761,0 4.082-2.131 5-5l4-12h-22.066zm13.066,19c-1.657,0-3,1.343-3,3 0,1.657 1.343,3 3,3s3-1.343 3-3c0-1.657-1.343-3-3-3zm1,4h-2v-2h2v2zm-17-4c-1.657,0-3,1.343-3,3 0,1.657 1.343,3 3,3s3-1.343 3-3c0-1.657-1.343-3-3-3zm1,4h-2v-2h2v2z" fill="#ffffff" class="color000 svgShape"></path></svg></g></svg>