<?xml version="1.0" encoding="utf-8"?>
<!-- Generator: Adobe Illustrator 23.0.1, SVG Export Plug-In . SVG Version: 6.00 Build 0)  -->
<svg version="1.1" id="Group_785" xmlns="http://www.w3.org/2000/svg" xmlns:xlink="http://www.w3.org/1999/xlink" x="0px" y="0px"
	 viewBox="0 0 22.8 21.9" style="enable-background:new 0 0 22.8 21.9;" xml:space="preserve">
<style type="text/css">
	.st0{fill:#FFFFFF;}
</style>
<g id="Path_423">
	<path class="st0" d="M17.2,4.2c-0.7,0-1.3,0.6-1.3,1.3c0,0.7,0.6,1.3,1.3,1.3s1.3-0.6,1.3-1.3v0C18.5,4.8,17.9,4.2,17.2,4.2z"/>
</g>
<g id="Path_424">
	<path class="st0" d="M18.6,21.9H4.2c-2.3,0-4.2-2.5-4.2-5.6V5.6C0,2.5,1.8,0,4.2,0h14.4c2.3,0,4.2,2.5,4.2,5.6v10.7
		C22.8,19.4,21,21.9,18.6,21.9z M4.2,1C2.4,1,1,3.1,1,5.6v10.7c0,2.5,1.5,4.6,3.2,4.6h14.4c1.8,0,3.2-2.1,3.2-4.6V5.6
		c0-2.5-1.5-4.6-3.2-4.6H4.2z"/>
</g>
<g id="Ellipse_176">
	<path class="st0" d="M11.5,16.8c-3.1,0-5.6-2.5-5.6-5.6s2.5-5.6,5.6-5.6s5.6,2.5,5.6,5.6S14.6,16.8,11.5,16.8z M11.5,6.6
		c-2.5,0-4.6,2.1-4.6,4.6c0,2.5,2.1,4.6,4.6,4.6c2.5,0,4.6-2.1,4.6-4.6C16.1,8.7,14,6.6,11.5,6.6z"/>
</g>
</svg>
