<?xml version="1.0" encoding="utf-8"?>
<!-- Generator: Adobe Illustrator 23.0.1, SVG Export Plug-In . SVG Version: 6.00 Build 0)  -->
<svg version="1.1" id="Group_786" xmlns="http://www.w3.org/2000/svg" xmlns:xlink="http://www.w3.org/1999/xlink" x="0px" y="0px"
	 viewBox="0 0 25.1 17.6" style="enable-background:new 0 0 25.1 17.6;" xml:space="preserve">
<style type="text/css">
	.st0{fill:#FFFFFF;}
</style>
<g id="Path_421">
	<path class="st0" d="M20.5,17.6H4.6C2.1,17.6,0,15.5,0,13V4.6c0-1.2,0.4-2.4,1.3-3.2C2.1,0.5,3.3,0,4.5,0h0.1h15.9
		c2.5,0,4.6,2.1,4.6,4.6V13C25.1,15.5,23,17.6,20.5,17.6z M4.6,1L4.6,1C3.6,1,2.7,1.4,2,2.1C1.3,2.7,1,3.6,1,4.6V13
		c0,2,1.6,3.6,3.6,3.6h15.9c2,0,3.6-1.6,3.6-3.6V4.6c0-2-1.6-3.6-3.6-3.6H4.6L4.6,1L4.6,1z"/>
</g>
<g id="Path_422">
	<path class="st0" d="M10.7,12.5c-0.4,0-0.8-0.2-1.1-0.6c-0.2-0.2-0.2-0.4-0.2-0.7V6.3c0-0.6,0.5-1.2,1.2-1.2c0.2,0,0.4,0,0.6,0.2
		L16,7.6c0.6,0.3,0.9,1,0.6,1.6l-0.1,0.1c0,0,0,0.1-0.1,0.1l-0.3,0.3L16,9.8l-4.8,2.5C11,12.4,10.9,12.5,10.7,12.5z M10.4,11.3
		L10.4,11.3c0.1,0.2,0.3,0.2,0.4,0.1L15.5,9l0.2-0.2c0-0.1,0-0.2-0.1-0.2l0,0l-2.3-1.1l-2.6-1.3h-0.1c-0.1,0-0.2,0.1-0.2,0.2
		C10.4,6.4,10.4,11.3,10.4,11.3z M10.4,11.3L10.4,11.3L10.4,11.3z M16.1,9.1L16.1,9.1L16.1,9.1z M10.6,6.1
		C10.6,6.1,10.7,6.1,10.6,6.1C10.7,6.1,10.6,6.1,10.6,6.1z"/>
</g>
</svg>
